<svg width="120" height="144" viewBox="0 0 120 120" fill="none" xmlns="http://www.w3.org/2000/svg">
<g clip-path="url(#clip0_1613_936)">
<path fill-rule="evenodd" clip-rule="evenodd" d="M64 10.6667C93.4354 10.6667 117.333 34.5646 117.333 64C117.333 93.4355 93.4354 117.333 64 117.333C34.5645 117.333 10.6667 93.4355 10.6667 64C10.6667 34.5646 34.5645 10.6667 64 10.6667ZM67.7865 105.365C67.7865 105.365 63.5461 96.75 75.7187 91.7996C103.356 80.5597 92.6841 49.4667 92.7287 52.2254C93.0215 70.4446 71.6069 71.198 77.8938 68.6955C91.3306 63.3466 94.9253 22.293 53.0501 22.6372C51.38 22.651 66.5746 29.2604 61.8617 44.4256C59.3064 52.6465 50.2288 56.6249 45.6627 49.9847C43.4049 46.7013 45.9377 39.6446 45.6627 39.6349C40.5044 39.4523 18.928 69.7432 48.7176 90.1607C53.109 93.1706 41.2824 79.4664 65.1283 63.9723C67.1434 62.6619 40.7052 84.6559 67.7865 105.365Z" fill="url(#paint0_linear_1613_936)"/>
</g>
<defs>
<linearGradient id="paint0_linear_1613_936" x1="117.333" y1="10.6667" x2="10.6667" y2="117.333" gradientUnits="userSpaceOnUse">
<stop stop-color="#0066B0"/>
<stop offset="1" stop-color="#2ABDEA"/>
</linearGradient>
<clipPath id="clip0_1613_936">
<rect width="120" height="120" fill="white"/>
</clipPath>
</defs>
</svg>
